<svg width="202" height="71" viewBox="0 0 202 71" fill="none" xmlns="http://www.w3.org/2000/svg">
<rect width="202" height="71" fill="white"/>
<path d="M32.7373 48.15C31.3573 48.15 30.1073 47.81 28.9873 47.13C27.8873 46.45 27.0173 45.47 26.3773 44.19C25.7373 42.89 25.4173 41.36 25.4173 39.6C25.4173 36.56 26.0673 33.75 27.3673 31.17C28.6673 28.57 30.5873 26.49 33.1273 24.93C35.6673 23.35 38.7173 22.56 42.2773 22.56C43.1973 22.56 44.1773 22.63 45.2173 22.77C46.2773 22.91 47.2373 23.12 48.0973 23.4C48.6573 23.56 48.9373 23.96 48.9373 24.6C48.9373 25.12 48.7373 25.61 48.3373 26.07C47.9573 26.53 47.5073 26.76 46.9873 26.76C46.8273 26.76 46.7073 26.75 46.6273 26.73C45.5873 26.49 44.6973 26.32 43.9573 26.22C43.2173 26.1 42.4373 26.04 41.6173 26.04C39.0773 26.04 36.9173 26.66 35.1373 27.9C33.3573 29.12 32.0273 30.74 31.1473 32.76C30.2673 34.78 29.8273 36.96 29.8273 39.3C29.8273 41 30.1573 42.32 30.8173 43.26C31.4973 44.18 32.3773 44.64 33.4573 44.64C34.6773 44.64 35.7473 44.14 36.6673 43.14C37.5873 42.14 38.4273 40.52 39.1873 38.28C39.9473 36.04 40.6973 33 41.4373 29.16C41.5573 28.6 41.7973 28.22 42.1573 28.02C42.5173 27.82 42.9973 27.72 43.5973 27.72C45.0173 27.72 45.7273 28.18 45.7273 29.1C45.7273 29.26 45.6973 29.46 45.6373 29.7C45.1173 31.64 44.6373 33.79 44.1973 36.15C43.7773 38.49 43.5673 40.27 43.5673 41.49C43.5673 42.57 43.7273 43.36 44.0473 43.86C44.3673 44.34 44.8573 44.58 45.5173 44.58C46.1573 44.58 46.7673 44.37 47.3473 43.95C47.9273 43.51 48.6573 42.77 49.5373 41.73C49.7773 41.45 50.0473 41.31 50.3473 41.31C50.6073 41.31 50.8073 41.43 50.9473 41.67C51.1073 41.91 51.1873 42.24 51.1873 42.66C51.1873 43.44 50.9973 44.06 50.6173 44.52C49.6373 45.7 48.6773 46.6 47.7373 47.22C46.7973 47.84 45.6473 48.15 44.2873 48.15C42.8873 48.15 41.7573 47.75 40.8973 46.95C40.0373 46.13 39.4973 44.98 39.2773 43.5C37.7973 46.6 35.6173 48.15 32.7373 48.15ZM64.7213 38.79C64.9813 38.79 65.1813 38.92 65.3213 39.18C65.4613 39.44 65.5313 39.77 65.5313 40.17C65.5313 40.67 65.4613 41.06 65.3213 41.34C65.1813 41.6 64.9613 41.78 64.6613 41.88C63.4613 42.3 62.1413 42.54 60.7013 42.6C60.3013 44.26 59.5413 45.6 58.4213 46.62C57.3213 47.64 56.1013 48.15 54.7613 48.15C52.7413 48.15 51.2713 47.38 50.3513 45.84C49.4313 44.3 48.9713 42.07 48.9713 39.15C48.9713 36.57 49.2913 33.77 49.9313 30.75C50.5713 27.71 51.5013 25.13 52.7213 23.01C53.9613 20.87 55.4313 19.8 57.1313 19.8C58.0513 19.8 58.7913 20.2 59.3513 21C59.9113 21.78 60.1913 22.8 60.1913 24.06C60.1913 25.7 59.8813 27.33 59.2613 28.95C58.6413 30.57 57.6113 32.27 56.1713 34.05C57.5113 34.15 58.6013 34.71 59.4413 35.73C60.2813 36.73 60.7813 37.97 60.9413 39.45C61.8813 39.39 63.0013 39.19 64.3013 38.85C64.4213 38.81 64.5613 38.79 64.7213 38.79ZM56.4413 22.77C56.0413 22.77 55.6013 23.37 55.1213 24.57C54.6613 25.75 54.2313 27.36 53.8313 29.4C53.4313 31.44 53.1313 33.67 52.9313 36.09C54.2513 33.67 55.3013 31.54 56.0813 29.7C56.8813 27.84 57.2813 26.19 57.2813 24.75C57.2813 24.11 57.2013 23.62 57.0413 23.28C56.9013 22.94 56.7013 22.77 56.4413 22.77ZM54.8813 44.97C55.5013 44.97 56.0513 44.71 56.5313 44.19C57.0113 43.67 57.3313 42.92 57.4913 41.94C56.8713 41.52 56.3913 40.97 56.0513 40.29C55.7313 39.61 55.5713 38.89 55.5713 38.13C55.5713 37.85 55.6113 37.47 55.6913 36.99H55.6013C54.7813 36.99 54.0913 37.4 53.5313 38.22C52.9913 39.02 52.7213 40.1 52.7213 41.46C52.7213 42.6 52.9313 43.47 53.3513 44.07C53.7913 44.67 54.3013 44.97 54.8813 44.97ZM65.071 48.15C64.311 48.15 63.771 47.75 63.451 46.95C63.151 46.15 63.001 44.87 63.001 43.11C63.001 40.51 63.371 38.04 64.111 35.7C64.291 35.12 64.581 34.7 64.981 34.44C65.401 34.16 65.981 34.02 66.721 34.02C67.121 34.02 67.401 34.07 67.561 34.17C67.721 34.27 67.801 34.46 67.801 34.74C67.801 35.06 67.651 35.78 67.351 36.9C67.151 37.7 66.991 38.4 66.871 39C66.751 39.6 66.651 40.34 66.571 41.22C67.231 39.5 67.971 38.1 68.791 37.02C69.611 35.94 70.411 35.17 71.191 34.71C71.991 34.25 72.721 34.02 73.381 34.02C74.681 34.02 75.331 34.67 75.331 35.97C75.331 36.23 75.241 36.86 75.061 37.86C74.901 38.66 74.821 39.16 74.821 39.36C74.821 40.06 75.071 40.41 75.571 40.41C76.131 40.41 76.851 39.97 77.731 39.09C77.991 38.83 78.261 38.7 78.541 38.7C78.801 38.7 79.001 38.82 79.141 39.06C79.301 39.28 79.381 39.58 79.381 39.96C79.381 40.7 79.181 41.28 78.781 41.7C78.221 42.28 77.561 42.78 76.801 43.2C76.061 43.6 75.271 43.8 74.431 43.8C73.371 43.8 72.561 43.53 72.001 42.99C71.461 42.45 71.191 41.72 71.191 40.8C71.191 40.5 71.221 40.2 71.281 39.9C71.321 39.5 71.341 39.23 71.341 39.09C71.341 38.77 71.231 38.61 71.011 38.61C70.711 38.61 70.311 38.95 69.811 39.63C69.331 40.29 68.851 41.17 68.371 42.27C67.891 43.37 67.501 44.53 67.201 45.75C66.981 46.69 66.721 47.33 66.421 47.67C66.141 47.99 65.691 48.15 65.071 48.15ZM80.5233 32.04C79.6833 32.04 79.0533 31.85 78.6333 31.47C78.2133 31.07 78.0033 30.52 78.0033 29.82C78.0033 29.12 78.2733 28.54 78.8133 28.08C79.3733 27.6 80.0633 27.36 80.8833 27.36C81.6233 27.36 82.2233 27.54 82.6833 27.9C83.1433 28.26 83.3733 28.77 83.3733 29.43C83.3733 30.23 83.1133 30.87 82.5933 31.35C82.0733 31.81 81.3833 32.04 80.5233 32.04ZM80.2833 48.15C78.9833 48.15 78.0333 47.69 77.4333 46.77C76.8533 45.85 76.5633 44.63 76.5633 43.11C76.5633 42.21 76.6733 41.06 76.8933 39.66C77.1333 38.24 77.4333 36.92 77.7933 35.7C77.9733 35.06 78.2133 34.62 78.5133 34.38C78.8133 34.14 79.2933 34.02 79.9533 34.02C80.9733 34.02 81.4833 34.36 81.4833 35.04C81.4833 35.54 81.2933 36.7 80.9133 38.52C80.4333 40.72 80.1933 42.21 80.1933 42.99C80.1933 43.59 80.2733 44.05 80.4333 44.37C80.5933 44.69 80.8633 44.85 81.2433 44.85C81.6033 44.85 82.0533 44.6 82.5933 44.1C83.1333 43.6 83.8533 42.81 84.7533 41.73C84.9933 41.45 85.2633 41.31 85.5633 41.31C85.8233 41.31 86.0233 41.43 86.1633 41.67C86.3233 41.91 86.4033 42.24 86.4033 42.66C86.4033 43.46 86.2133 44.08 85.8333 44.52C83.8533 46.94 82.0033 48.15 80.2833 48.15ZM92.6461 43.77C92.8661 43.57 93.0861 43.47 93.3061 43.47C93.5461 43.47 93.7361 43.61 93.8761 43.89C94.0361 44.15 94.1161 44.47 94.1161 44.85C94.1161 45.69 93.8161 46.36 93.2161 46.86C92.1761 47.72 90.9961 48.15 89.6761 48.15C87.7761 48.15 86.3861 47.36 85.5061 45.78C84.6261 44.18 84.1861 42.1 84.1861 39.54C84.1861 37.1 84.4961 34.32 85.1161 31.2C85.7561 28.08 86.6861 25.4 87.9061 23.16C89.1461 20.92 90.6161 19.8 92.3161 19.8C93.2761 19.8 94.0261 20.25 94.5661 21.15C95.1261 22.03 95.4061 23.3 95.4061 24.96C95.4061 27.34 94.7461 30.1 93.4261 33.24C92.1261 36.38 90.3461 39.48 88.0861 42.54C88.2261 43.36 88.4761 43.95 88.8361 44.31C89.1961 44.67 89.6861 44.85 90.3061 44.85C90.6461 44.85 91.0261 44.75 91.4461 44.55C91.8861 44.35 92.2861 44.09 92.6461 43.77ZM91.6561 22.77C91.1961 22.77 90.6761 23.6 90.0961 25.26C89.5161 26.92 89.0061 28.98 88.5661 31.44C88.1261 33.9 87.8861 36.26 87.8461 38.52C89.2661 36.18 90.3961 33.84 91.2361 31.5C92.0761 29.14 92.4961 26.99 92.4961 25.05C92.4961 23.53 92.2161 22.77 91.6561 22.77ZM111.481 48.15C109.801 48.15 108.531 47.69 107.671 46.77C106.811 45.83 106.381 44.58 106.381 43.02C106.381 42.14 106.511 41.07 106.771 39.81L108.631 31.23C108.671 31.07 108.761 30.63 108.901 29.91C109.061 29.19 109.141 28.41 109.141 27.57C109.141 27.09 109.041 26.73 108.841 26.49C108.661 26.25 108.411 26.13 108.091 26.13C107.491 26.13 106.791 26.42 105.991 27C105.191 27.56 104.351 28.43 103.471 29.61C103.191 29.99 102.881 30.18 102.541 30.18C102.261 30.18 102.011 30.05 101.791 29.79C101.591 29.51 101.491 29.2 101.491 28.86C101.491 28.24 101.771 27.54 102.331 26.76C104.371 23.96 106.761 22.56 109.501 22.56C110.721 22.56 111.671 22.93 112.351 23.67C113.051 24.41 113.401 25.5 113.401 26.94C113.401 27.96 113.331 28.9 113.191 29.76C113.051 30.62 112.811 31.79 112.471 33.27L111.241 38.76C111.201 38.94 111.131 39.26 111.031 39.72C110.931 40.18 110.851 40.62 110.791 41.04C110.731 41.44 110.701 41.84 110.701 42.24C110.701 42.88 110.881 43.39 111.241 43.77C111.601 44.15 112.111 44.34 112.771 44.34C113.971 44.34 115.181 43.7 116.401 42.42C117.641 41.14 118.781 39.08 119.821 36.24C120.881 33.38 121.701 29.73 122.281 25.29C122.421 24.27 122.621 23.56 122.881 23.16C123.161 22.76 123.691 22.56 124.471 22.56C125.171 22.56 125.691 22.77 126.031 23.19C126.371 23.61 126.541 24.29 126.541 25.23C126.541 25.77 126.471 26.48 126.331 27.36C126.211 28.24 126.021 29.47 125.761 31.05C125.221 34.11 124.791 36.92 124.471 39.48C124.311 40.64 124.231 41.5 124.231 42.06C124.231 42.88 124.411 43.51 124.771 43.95C125.151 44.37 125.651 44.58 126.271 44.58C126.931 44.58 127.571 44.36 128.191 43.92C128.831 43.48 129.581 42.75 130.441 41.73C130.681 41.45 130.951 41.31 131.251 41.31C131.511 41.31 131.711 41.43 131.851 41.67C132.011 41.91 132.091 42.24 132.091 42.66C132.091 43.44 131.901 44.06 131.521 44.52C130.481 45.78 129.451 46.7 128.431 47.28C127.411 47.86 126.341 48.15 125.221 48.15C123.561 48.15 122.291 47.73 121.411 46.89C120.531 46.03 120.091 44.92 120.091 43.56C120.091 42.8 120.251 41.32 120.571 39.12C119.571 42.06 118.301 44.3 116.761 45.84C115.241 47.38 113.481 48.15 111.481 48.15ZM131.78 48.15C131.02 48.15 130.48 47.75 130.16 46.95C129.86 46.15 129.71 44.87 129.71 43.11C129.71 40.51 130.08 38.04 130.82 35.7C131 35.12 131.29 34.7 131.69 34.44C132.11 34.16 132.69 34.02 133.43 34.02C133.83 34.02 134.11 34.07 134.27 34.17C134.43 34.27 134.51 34.46 134.51 34.74C134.51 35.06 134.36 35.78 134.06 36.9C133.86 37.7 133.7 38.4 133.58 39C133.46 39.6 133.36 40.34 133.28 41.22C133.94 39.5 134.68 38.1 135.5 37.02C136.32 35.94 137.12 35.17 137.9 34.71C138.7 34.25 139.43 34.02 140.09 34.02C141.39 34.02 142.04 34.67 142.04 35.97C142.04 36.23 141.95 36.86 141.77 37.86C141.61 38.66 141.53 39.16 141.53 39.36C141.53 40.06 141.78 40.41 142.28 40.41C142.84 40.41 143.56 39.97 144.44 39.09C144.7 38.83 144.97 38.7 145.25 38.7C145.51 38.7 145.71 38.82 145.85 39.06C146.01 39.28 146.09 39.58 146.09 39.96C146.09 40.7 145.89 41.28 145.49 41.7C144.93 42.28 144.27 42.78 143.51 43.2C142.77 43.6 141.98 43.8 141.14 43.8C140.08 43.8 139.27 43.53 138.71 42.99C138.17 42.45 137.9 41.72 137.9 40.8C137.9 40.5 137.93 40.2 137.99 39.9C138.03 39.5 138.05 39.23 138.05 39.09C138.05 38.77 137.94 38.61 137.72 38.61C137.42 38.61 137.02 38.95 136.52 39.63C136.04 40.29 135.56 41.17 135.08 42.27C134.6 43.37 134.21 44.53 133.91 45.75C133.69 46.69 133.43 47.33 133.13 47.67C132.85 47.99 132.4 48.15 131.78 48.15ZM156.682 41.31C156.942 41.31 157.142 41.43 157.282 41.67C157.442 41.91 157.522 42.24 157.522 42.66C157.522 43.46 157.332 44.08 156.952 44.52C156.212 45.42 155.162 46.25 153.802 47.01C152.462 47.77 151.022 48.15 149.482 48.15C147.382 48.15 145.752 47.58 144.592 46.44C143.432 45.3 142.852 43.74 142.852 41.76C142.852 40.38 143.142 39.1 143.722 37.92C144.302 36.72 145.102 35.77 146.122 35.07C147.162 34.37 148.332 34.02 149.632 34.02C150.792 34.02 151.722 34.37 152.422 35.07C153.122 35.75 153.472 36.68 153.472 37.86C153.472 39.24 152.972 40.43 151.972 41.43C150.992 42.41 149.322 43.19 146.962 43.77C147.462 44.69 148.412 45.15 149.812 45.15C150.712 45.15 151.732 44.84 152.872 44.22C154.032 43.58 155.032 42.75 155.872 41.73C156.112 41.45 156.382 41.31 156.682 41.31ZM149.122 36.96C148.382 36.96 147.752 37.39 147.232 38.25C146.732 39.11 146.482 40.15 146.482 41.37V41.43C147.662 41.15 148.592 40.73 149.272 40.17C149.952 39.61 150.292 38.96 150.292 38.22C150.292 37.84 150.182 37.54 149.962 37.32C149.762 37.08 149.482 36.96 149.122 36.96ZM157.21 48.15C156.45 48.15 155.91 47.75 155.59 46.95C155.29 46.15 155.14 44.87 155.14 43.11C155.14 40.51 155.51 38.04 156.25 35.7C156.43 35.12 156.72 34.7 157.12 34.44C157.54 34.16 158.12 34.02 158.86 34.02C159.26 34.02 159.54 34.07 159.7 34.17C159.86 34.27 159.94 34.46 159.94 34.74C159.94 35.06 159.79 35.78 159.49 36.9C159.29 37.7 159.13 38.4 159.01 39C158.89 39.6 158.79 40.34 158.71 41.22C159.37 39.5 160.11 38.1 160.93 37.02C161.75 35.94 162.55 35.17 163.33 34.71C164.13 34.25 164.86 34.02 165.52 34.02C166.82 34.02 167.47 34.67 167.47 35.97C167.47 36.75 167.25 38.16 166.81 40.2C166.43 41.94 166.24 43.09 166.24 43.65C166.24 44.45 166.53 44.85 167.11 44.85C167.51 44.85 167.98 44.61 168.52 44.13C169.08 43.63 169.82 42.83 170.74 41.73C170.98 41.45 171.25 41.31 171.55 41.31C171.81 41.31 172.01 41.43 172.15 41.67C172.31 41.91 172.39 42.24 172.39 42.66C172.39 43.46 172.2 44.08 171.82 44.52C170.96 45.58 170.03 46.45 169.03 47.13C168.05 47.81 166.93 48.15 165.67 48.15C164.65 48.15 163.88 47.86 163.36 47.28C162.84 46.68 162.58 45.82 162.58 44.7C162.58 44.14 162.72 43.14 163 41.7C163.26 40.44 163.39 39.57 163.39 39.09C163.39 38.77 163.28 38.61 163.06 38.61C162.8 38.61 162.43 38.95 161.95 39.63C161.49 40.29 161.01 41.17 160.51 42.27C160.03 43.37 159.64 44.53 159.34 45.75C159.12 46.69 158.86 47.33 158.56 47.67C158.28 47.99 157.83 48.15 157.21 48.15ZM173.412 48.15C172.272 48.15 171.342 47.7 170.622 46.8C169.922 45.9 169.572 44.72 169.572 43.26C169.572 41.66 169.942 40.15 170.682 38.73C171.422 37.29 172.402 36.14 173.622 35.28C174.862 34.4 176.172 33.96 177.552 33.96C177.992 33.96 178.282 34.05 178.422 34.23C178.582 34.39 178.712 34.69 178.812 35.13C179.192 35.05 179.612 35.01 180.072 35.01C180.552 35.01 180.922 35.13 181.182 35.37C181.442 35.61 181.572 35.95 181.572 36.39C181.572 36.85 181.472 37.65 181.272 38.79C181.052 40.01 180.882 41.18 180.762 42.3C180.642 43.4 180.582 44.64 180.582 46.02C180.582 46.78 180.422 47.33 180.102 47.67C179.802 47.99 179.302 48.15 178.602 48.15C177.922 48.15 177.412 47.99 177.072 47.67C176.752 47.33 176.592 46.79 176.592 46.05L176.622 45.57C176.002 47.29 174.932 48.15 173.412 48.15ZM174.582 45.12C175.142 45.12 175.652 44.73 176.112 43.95C176.572 43.17 176.982 41.78 177.342 39.78L177.912 36.75C177.092 36.77 176.332 37.09 175.632 37.71C174.932 38.31 174.372 39.11 173.952 40.11C173.532 41.11 173.322 42.17 173.322 43.29C173.322 43.89 173.432 44.35 173.652 44.67C173.892 44.97 174.202 45.12 174.582 45.12Z" fill="#001666"/>
</svg>
